<svg width="14" height="15" viewBox="0 0 14 15" fill="none" xmlns="http://www.w3.org/2000/svg">
<path d="M6.99995 0.549988C6.04517 0.549988 5.1295 0.929272 4.45437 1.6044C3.77924 2.27953 3.39995 3.19521 3.39995 4.14999C3.39995 5.10477 3.77924 6.02044 4.45437 6.69557C5.1295 7.3707 6.04517 7.74999 6.99995 7.74999C7.95473 7.74999 8.8704 7.3707 9.54554 6.69557C10.2207 6.02044 10.6 5.10477 10.6 4.14999C10.6 3.19521 10.2207 2.27953 9.54554 1.6044C8.8704 0.929272 7.95473 0.549988 6.99995 0.549988ZM4.29995 4.14999C4.29995 3.4339 4.58441 2.74715 5.09076 2.2408C5.59711 1.73445 6.28387 1.44999 6.99995 1.44999C7.71604 1.44999 8.40279 1.73445 8.90914 2.2408C9.41549 2.74715 9.69995 3.4339 9.69995 4.14999C9.69995 4.86607 9.41549 5.55283 8.90914 6.05918C8.40279 6.56552 7.71604 6.84999 6.99995 6.84999C6.28387 6.84999 5.59711 6.56552 5.09076 6.05918C4.58441 5.55283 4.29995 4.86607 4.29995 4.14999ZM2.50805 8.64999C2.27102 8.64904 2.03614 8.69489 1.81687 8.78491C1.5976 8.87494 1.39826 9.00736 1.23028 9.17459C1.0623 9.34182 0.928987 9.54056 0.837981 9.75942C0.746974 9.97828 0.700068 10.213 0.699951 10.45C0.699951 11.9719 1.44965 13.1194 2.62145 13.8673C3.77525 14.6026 5.33045 14.95 6.99995 14.95C8.66945 14.95 10.2247 14.6026 11.3785 13.8673C12.5503 13.1203 13.3 11.971 13.3 10.45C13.3 9.9726 13.1103 9.51476 12.7727 9.1772C12.4352 8.83963 11.9773 8.64999 11.5 8.64999H2.50805ZM1.59995 10.45C1.59995 9.95229 2.00315 9.54999 2.50805 9.54999H11.5C11.7386 9.54999 11.9676 9.64481 12.1363 9.81359C12.3051 9.98237 12.4 10.2113 12.4 10.45C12.4 11.6281 11.8402 12.5056 10.8943 13.1077C9.93125 13.7224 8.56145 14.05 6.99995 14.05C5.43845 14.05 4.06865 13.7224 3.10565 13.1077C2.16065 12.5047 1.59995 11.629 1.59995 10.45Z" fill="#FF8800"/>
</svg>
