<svg width="20" height="18" viewBox="0 0 20 18" fill="none" xmlns="http://www.w3.org/2000/svg">
<path d="M19.0509 11.1822L19.032 11.1917C19.2492 11.4561 19.4381 11.7489 19.5798 12.0606L19.6648 12.24C20.3353 13.8361 19.8631 15.6778 18.6259 16.83C17.502 17.8595 15.9342 18.1333 14.4798 17.9445C13.1009 17.7745 11.8353 16.9056 11.1081 15.7061C10.8909 15.3378 10.702 14.9222 10.6076 14.4972C10.4848 14.1667 10.447 13.8078 10.4187 13.4583C10.3337 11.9472 10.9381 10.3417 12.0809 9.39723C11.5615 10.54 11.6842 11.9661 12.4492 12.9578L12.5531 13.0806C12.6853 13.1939 12.8459 13.2222 12.997 13.1656C13.1387 13.1089 13.252 12.9672 13.252 12.8161L13.1859 12.5894C12.3548 10.3889 13.0537 7.83889 14.8198 6.39389C15.3015 5.99722 15.8965 5.63834 16.5198 5.47778C15.8776 6.76222 16.0853 8.44334 17.1148 9.44445C17.5492 9.91667 18.0781 10.1906 18.522 10.6061L19.0509 11.1822ZM16.8976 15.5833L16.8881 15.555C17.3131 15.1867 17.5492 14.5539 17.5303 13.9872L17.502 13.6944C17.3131 12.75 16.4915 12.4289 15.9626 11.7394C15.802 11.5317 15.6603 11.2672 15.5565 11.0028C15.3487 11.475 15.3298 11.9189 15.4148 12.4289C15.5092 12.9672 15.717 13.43 15.6131 13.9872C15.462 14.6011 14.9803 15.215 14.1398 15.4133C14.612 15.8761 15.377 16.2445 16.142 15.98C16.3876 15.9139 16.6992 15.7344 16.8976 15.5833ZM6.6409 17V14.1667H0.0297852L4.75201 9.44445H1.91867L6.6409 4.72222H3.80756L8.52979 0L13.252 4.72222H10.4187L12.1376 6.44111C9.99368 7.61222 8.52979 10.0017 8.52979 12.75C8.52979 14.3461 9.00201 15.8194 9.85201 17H6.6409Z" fill="#CD8F09"/>
</svg>
