<svg width="49" height="43" viewBox="0 0 49 43" fill="none" xmlns="http://www.w3.org/2000/svg">
<path d="M45.9657 26.7898L45.921 26.8122C46.4361 27.4394 46.8841 28.1337 47.2201 28.8729L47.4217 29.2985C49.012 33.0839 47.8921 37.4518 44.9578 40.1845C42.2923 42.626 38.5741 43.2755 35.1246 42.8275C31.8543 42.4244 28.8529 40.3636 27.1281 37.519C26.6129 36.6454 26.165 35.6598 25.941 34.6519C25.6498 33.8679 25.5602 33.0167 25.493 32.188C25.2914 28.6041 26.7249 24.7963 29.4352 22.5564C28.2033 25.2667 28.4945 28.6489 30.3088 31.0008L30.5552 31.292C30.8688 31.5608 31.2496 31.628 31.6079 31.4936C31.9439 31.3592 32.2127 31.0232 32.2127 30.6648L32.0559 30.1273C30.0848 24.9083 31.7423 18.8605 35.931 15.4335C37.0733 14.4927 38.4845 13.6415 39.9628 13.2608C38.4397 16.307 38.9324 20.2941 41.3739 22.6684C42.4043 23.7883 43.6586 24.4379 44.7114 25.4235L45.9657 26.7898ZM40.8588 37.2278L40.8364 37.1606C41.8443 36.287 42.4043 34.7863 42.3595 33.4423L42.2923 32.748C41.8443 30.508 39.8956 29.7465 38.6413 28.1113C38.2605 27.6186 37.9245 26.9914 37.6781 26.3642C37.1853 27.4842 37.1405 28.5369 37.3421 29.7465C37.5661 31.0232 38.0589 32.1208 37.8125 33.4423C37.4541 34.8983 36.3117 36.3542 34.3182 36.8246C35.4382 37.9221 37.2525 38.7957 39.0668 38.1685C39.6492 38.0117 40.3884 37.5862 40.8588 37.2278ZM16.5334 40.5876V33.8679H0.854004L12.0535 22.6684H5.33382L16.5334 11.4688H9.81364L21.0132 0.269287L32.2127 11.4688H25.493L29.5696 15.5455C24.485 18.3229 21.0132 23.9899 21.0132 30.508C21.0132 34.2935 22.1331 37.7877 24.149 40.5876H16.5334Z" fill="#CD8F09"/>
</svg>
