<svg width="28" height="18" viewBox="0 0 28 18" fill="none" xmlns="http://www.w3.org/2000/svg">
<path fill-rule="evenodd" clip-rule="evenodd" d="M4.81646 0.943084C5.67303 -0.316942 7.46438 -0.269769 8.36937 0.818943C9.58843 2.28504 11.3065 3.72383 14.0252 3.72383C16.7911 3.72383 18.4831 2.56933 19.6351 1.12185C20.5302 -0.00410864 22.4395 -0.185354 23.378 1.1504C24.1452 2.24284 24.9843 3.11182 26.6404 3.48052C26.8756 3.53945 27.0785 3.68781 27.206 3.89404C27.3335 4.10027 27.3755 4.3481 27.3231 4.58484C27.2707 4.82157 27.1281 5.02853 26.9255 5.1617C26.7228 5.29487 26.4763 5.34375 26.2382 5.29794C23.9527 4.79144 22.7635 3.51528 21.8535 2.22049C21.7939 2.13483 21.6859 2.07152 21.5233 2.07525C21.441 2.07615 21.3598 2.09494 21.2854 2.13031C21.211 2.16567 21.1452 2.21677 21.0925 2.28008C19.6326 4.11488 17.4267 5.58594 14.0252 5.58594C10.5207 5.58594 8.32716 3.68411 6.93679 2.00821C6.89726 1.96102 6.8476 1.92334 6.7915 1.89798C6.73541 1.87262 6.67432 1.86023 6.61278 1.86172C6.5626 1.86027 6.51285 1.8713 6.46799 1.89384C6.42314 1.91637 6.38459 1.9497 6.35581 1.99083C5.42972 3.35265 4.24169 4.75916 1.81226 5.29794C1.69155 5.32818 1.56601 5.33392 1.44304 5.31482C1.32008 5.29572 1.20219 5.25216 1.09635 5.18672C0.990503 5.12128 0.898851 5.03529 0.826808 4.93383C0.754765 4.83236 0.703793 4.71749 0.676903 4.59599C0.650014 4.47449 0.647754 4.34883 0.670256 4.22644C0.692758 4.10405 0.739566 3.98742 0.807913 3.88343C0.87626 3.77944 0.96476 3.69021 1.06818 3.621C1.1716 3.5518 1.28785 3.50403 1.41005 3.48052C3.16291 3.09072 4.0021 2.1398 4.81646 0.943084ZM4.81646 7.15011C5.67303 5.89009 7.46438 5.93726 8.36937 7.02597C9.58843 8.49207 11.3065 9.93086 14.0252 9.93086C16.7911 9.93086 18.4831 8.77635 19.6351 7.32888C20.5302 6.20292 22.4395 6.02168 23.378 7.35743C24.1452 8.44986 24.9843 9.31885 26.6404 9.68755C26.8756 9.74648 27.0785 9.89483 27.206 10.1011C27.3335 10.3073 27.3755 10.5551 27.3231 10.7919C27.2707 11.0286 27.1281 11.2356 26.9255 11.3687C26.7228 11.5019 26.4763 11.5508 26.2382 11.505C23.9527 10.9985 22.7635 9.7223 21.8535 8.42752C21.7939 8.34186 21.6859 8.27855 21.5233 8.28227C21.441 8.28318 21.3598 8.30197 21.2854 8.33733C21.211 8.3727 21.1452 8.4238 21.0925 8.48711C19.6326 10.3231 17.4267 11.793 14.0252 11.793C10.5207 11.793 8.32716 9.8899 6.93679 8.21524C6.89726 8.16805 6.8476 8.13037 6.7915 8.10501C6.73541 8.07965 6.67432 8.06726 6.61278 8.06875C6.5626 8.06729 6.51285 8.07833 6.46799 8.10087C6.42314 8.1234 6.38459 8.15673 6.35581 8.19786C5.42972 9.55968 4.24169 10.9662 1.81226 11.505C1.57109 11.5583 1.31861 11.5137 1.11037 11.3808C0.902118 11.248 0.755162 11.0379 0.701824 10.7967C0.648487 10.5556 0.693139 10.3031 0.825956 10.0948C0.958774 9.8866 1.16888 9.73964 1.41005 9.68631C3.16291 9.29899 4.0021 8.34683 4.81646 7.15011ZM4.81646 13.3571C5.67303 12.0971 7.46438 12.1443 8.36937 13.233C9.58843 14.6991 11.3065 16.1379 14.0252 16.1379C16.7911 16.1379 18.4831 14.9834 19.6351 13.5359C20.5302 12.4099 22.4395 12.2287 23.378 13.5645C24.1452 14.6569 24.9843 15.5259 26.6404 15.8946C26.8756 15.9535 27.0785 16.1019 27.206 16.3081C27.3335 16.5143 27.3755 16.7622 27.3231 16.9989C27.2707 17.2356 27.1281 17.4426 26.9255 17.5758C26.7228 17.7089 26.4763 17.7578 26.2382 17.712C23.9527 17.2055 22.7635 15.9293 21.8535 14.6345C21.7939 14.5489 21.6859 14.4856 21.5233 14.4893C21.441 14.4902 21.3598 14.509 21.2854 14.5444C21.211 14.5797 21.1452 14.6308 21.0925 14.6941C19.6326 16.5302 17.4267 18 14.0252 18C10.5207 18 8.32716 16.0982 6.93679 14.4223C6.89726 14.3751 6.8476 14.3374 6.7915 14.312C6.73541 14.2867 6.67432 14.2743 6.61278 14.2758C6.5626 14.2743 6.51285 14.2854 6.46799 14.3079C6.42314 14.3304 6.38459 14.3638 6.35581 14.4049C5.42972 15.7667 4.24169 17.1732 1.81226 17.712C1.57109 17.7653 1.31861 17.7207 1.11037 17.5879C0.902118 17.455 0.755162 17.2449 0.701824 17.0038C0.648487 16.7626 0.693139 16.5101 0.825956 16.3019C0.958774 16.0936 1.16888 15.9467 1.41005 15.8933C3.16291 15.506 4.0021 14.5539 4.81646 13.3571Z" fill="#00A5C9"/>
</svg>
