<svg width="23" height="22" viewBox="0 0 23 22" fill="none" xmlns="http://www.w3.org/2000/svg">
<path d="M20.5 16V7H6.5V16H20.5ZM20.5 2C21.0304 2 21.5391 2.21071 21.9142 2.58579C22.2893 2.96086 22.5 3.46957 22.5 4V16C22.5 16.5304 22.2893 17.0391 21.9142 17.4142C21.5391 17.7893 21.0304 18 20.5 18H6.5C5.39 18 4.5 17.1 4.5 16V4C4.5 3.46957 4.71071 2.96086 5.08579 2.58579C5.46086 2.21071 5.96957 2 6.5 2H7.5V0H9.5V2H17.5V0H19.5V2H20.5ZM17.03 10.06L12.59 14.5L9.91 11.82L10.97 10.76L12.59 12.38L15.97 9L17.03 10.06ZM2.5 20H16.5V22H2.5C1.39 22 0.5 21.1 0.5 20V8H2.5V20Z" fill="black"/>
</svg>
