<svg width="17" height="17" viewBox="0 0 17 17" fill="none" xmlns="http://www.w3.org/2000/svg">
<path d="M15.4545 11.8932V5.28305H5.17212V11.8932H15.4545ZM15.4545 1.61076C15.8441 1.61076 16.2177 1.76552 16.4932 2.04099C16.7687 2.31647 16.9234 2.69009 16.9234 3.07967V11.8932C16.9234 12.2827 16.7687 12.6564 16.4932 12.9318C16.2177 13.2073 15.8441 13.3621 15.4545 13.3621H5.17212C4.35688 13.3621 3.70321 12.7011 3.70321 11.8932V3.07967C3.70321 2.69009 3.85797 2.31647 4.13344 2.04099C4.40892 1.76552 4.78254 1.61076 5.17212 1.61076H5.90658V0.141846H7.37549V1.61076H13.2512V0.141846H14.7201V1.61076H15.4545ZM12.906 7.53048L9.64497 10.7915L7.67662 8.82313L8.45515 8.0446L9.64497 9.23442L12.1274 6.75196L12.906 7.53048ZM2.2343 14.831H12.5167V16.2999H2.2343C1.41905 16.2999 0.765381 15.6389 0.765381 14.831V6.0175H2.2343V14.831Z" fill="black"/>
</svg>
