<svg width="22" height="20" viewBox="0 0 22 20" fill="none" xmlns="http://www.w3.org/2000/svg">
<path d="M10.2801 14.6804H11.7199M1.64099 18.9999L6.68045 16.1202M1.64099 11.8007L7.40038 13.2405M11.6911 3.20478L19.4519 1.03061C19.5663 0.994571 19.6883 0.990267 19.805 1.01816C19.9216 1.04606 20.0285 1.1051 20.1142 1.189C20.2047 1.26838 20.2734 1.36959 20.3137 1.483C20.354 1.59641 20.3647 1.71825 20.3446 1.83693L18.7608 9.91447C18.6744 9.69849 18.588 9.46812 18.516 9.23774C18.0574 7.5654 17.0852 6.0793 15.7366 4.9891C14.3881 3.89891 12.7313 3.25967 11 3.16159C9.26868 3.25967 7.61187 3.89891 6.26334 4.9891C4.91481 6.0793 3.94264 7.5654 3.48399 9.23774C3.412 9.48251 3.32561 9.69849 3.23922 9.92887L1.65539 1.83693C1.63533 1.71825 1.64597 1.59641 1.68629 1.483C1.72662 1.36959 1.79528 1.26838 1.88577 1.189C1.97148 1.1051 2.07837 1.04606 2.19501 1.01816C2.31166 0.990267 2.4337 0.994571 2.54809 1.03061L10.3089 3.20478M13.1598 18.7551C11.7384 19.0816 10.2616 19.0816 8.84022 18.7551M20.359 18.9999L15.3195 16.1202M20.359 11.8007L14.5996 13.2405" stroke="#B06005" stroke-width="1.71429" stroke-linecap="round" stroke-linejoin="round"/>
</svg>
