<svg width="28" height="25" viewBox="0 0 28 25" fill="none" xmlns="http://www.w3.org/2000/svg">
<path d="M24.9953 13.8922L16.236 22.653C15.6553 23.2336 14.8678 23.5597 14.0466 23.5597C13.2255 23.5597 12.4379 23.2336 11.8572 22.653L3.09798 13.8938C2.37391 13.176 1.79874 12.3223 1.40549 11.3817C1.01223 10.441 0.808648 9.43198 0.806415 8.41245C0.804183 7.39291 1.00335 6.38298 1.39248 5.44062C1.78161 4.49826 2.35303 3.64205 3.07396 2.92112C3.79488 2.2002 4.6511 1.62877 5.59345 1.23964C6.53581 0.850515 7.54574 0.65135 8.56528 0.653583C9.58482 0.655816 10.5939 0.859401 11.5345 1.25265C12.4752 1.64591 13.3289 2.22108 14.0466 2.94515C15.5045 1.52353 17.4638 0.733537 19.5001 0.746296C21.5363 0.759054 23.4856 1.57354 24.9256 3.01332C26.3655 4.45309 27.1803 6.40222 27.1933 8.43847C27.2064 10.4747 26.4167 12.4341 24.9953 13.8922Z" fill="black" fill-opacity="0.2" stroke="white" stroke-width="1.16129" stroke-linecap="round" stroke-linejoin="round"/>
</svg>
