<svg width="29" height="43" viewBox="0 0 29 43" fill="none" xmlns="http://www.w3.org/2000/svg">
<path d="M14.1075 0.269287V42.9593C17.9937 42.8458 21.5455 40.5741 24.196 36.8211C26.9158 32.97 28.6325 27.5819 28.6325 21.6143C28.6325 15.6467 26.9161 10.2586 24.1962 6.40756C21.5458 2.65463 17.9937 0.382952 14.1075 0.269287ZM3.24885 18.9035C2.34224 18.9053 1.37996 18.9913 0.368435 19.1444C0.291125 28.0517 5.30881 24.3477 11.409 25.0148C10.0661 20.4691 7.17815 18.8958 3.24885 18.9035ZM24.129 18.9035C25.0356 18.9053 25.9978 18.9913 27.0094 19.1444C27.0865 28.0517 22.0688 24.3477 15.9685 25.0148C17.3115 20.4691 20.1997 18.8958 24.129 18.9035Z" fill="#2388FF"/>
</svg>
