<svg width="12" height="18" viewBox="0 0 12 18" fill="none" xmlns="http://www.w3.org/2000/svg">
<path d="M5.71865 0.725281V17.3622C7.23319 17.3179 8.61736 16.4326 9.65028 14.97C10.7102 13.4692 11.3793 11.3694 11.3793 9.04374C11.3793 6.71808 10.7103 4.61827 9.65035 3.11745C8.61746 1.65488 7.23319 0.769578 5.71865 0.725281ZM1.4869 7.9873C1.13358 7.988 0.758564 8.0215 0.364357 8.08116C0.334228 11.5525 2.28969 10.109 4.66702 10.369C4.14365 8.59743 3.0182 7.98431 1.4869 7.9873ZM9.62416 7.9873C9.97748 7.988 10.3525 8.0215 10.7467 8.08116C10.7768 11.5525 8.8213 10.109 6.44393 10.369C6.9673 8.59743 8.09286 7.98431 9.62416 7.9873Z" fill="#2388FF"/>
</svg>
