<svg width="18" height="18" viewBox="0 0 18 18" fill="none" xmlns="http://www.w3.org/2000/svg">
<path d="M16.6078 0.291057C16.3843 0.138231 16.127 0.0421269 15.8581 0.011054C15.5892 -0.0200189 15.3168 0.0148746 15.0644 0.112717C13.9168 0.559399 11.5976 1.30776 9 1.30776C6.40241 1.30776 4.08317 0.557733 2.93563 0.112717C2.68312 0.0148144 2.41055 -0.0200822 2.14153 0.0110475C1.8725 0.0421772 1.6151 0.138395 1.39163 0.291376C1.16815 0.444356 0.985312 0.649489 0.858944 0.889024C0.732577 1.12856 0.666483 1.39528 0.666382 1.6661V6.31376C0.666382 9.3672 1.49141 12.2515 2.9898 14.4349C4.56735 16.7341 6.70159 18 9 18C11.2984 18 13.4327 16.7341 15.0102 14.4365C16.5086 12.2498 17.3336 9.36887 17.3336 6.31543V1.6661C17.3335 1.39517 17.2673 1.12835 17.1409 0.888752C17.0144 0.649153 16.8314 0.443999 16.6078 0.291057ZM15.3336 6.31543C15.3336 8.96886 14.6327 11.4514 13.361 13.3048C12.1668 15.0424 10.6192 15.9999 9 15.9999C7.38078 15.9999 5.83323 15.0424 4.63902 13.3048C3.36731 11.4514 2.66645 8.96886 2.66645 6.31543V2.14862C4.049 2.64447 6.38908 3.31033 9 3.31033C11.6109 3.31033 13.951 2.64364 15.3336 2.14862V6.31543ZM9.8242 8.59634C9.6809 8.37321 9.63209 8.1023 9.68851 7.84319C9.74492 7.58408 9.90195 7.35798 10.125 7.21463C10.685 6.85696 11.3356 6.66692 12.0001 6.66692C12.6646 6.66692 13.3152 6.85696 13.8752 7.21463C14.0984 7.35829 14.2554 7.58475 14.3117 7.84418C14.3679 8.10362 14.3188 8.37478 14.1752 8.59801C14.0315 8.82124 13.8051 8.97826 13.5456 9.03452C13.2862 9.09078 13.015 9.04168 12.7918 8.89802C12.5542 8.74755 12.2788 8.66766 11.9976 8.66766C11.7164 8.66766 11.441 8.74755 11.2034 8.89802C11.0929 8.9691 10.9695 9.01771 10.8401 9.04106C10.7108 9.06442 10.5782 9.06206 10.4498 9.03412C10.3214 9.00618 10.1998 8.95321 10.0918 8.87823C9.98393 8.80326 9.89185 8.70775 9.82086 8.59718L9.8242 8.59634ZM5.9999 8.66634C5.71948 8.67213 5.44554 8.75175 5.2057 8.89719C4.98258 9.04085 4.71153 9.09 4.45217 9.03381C4.19282 8.97763 3.9664 8.82071 3.82274 8.59759C3.67908 8.37447 3.62993 8.10342 3.68612 7.84406C3.7423 7.58471 3.89921 7.35829 4.12233 7.21463C4.68225 6.85677 5.33289 6.66661 5.9974 6.66661C6.66191 6.66661 7.31254 6.85677 7.87246 7.21463C8.09558 7.35829 8.2525 7.58471 8.30868 7.84406C8.36487 8.10342 8.31572 8.37447 8.17206 8.59759C8.02839 8.82071 7.80198 8.97763 7.54262 9.03381C7.28327 9.09 7.01221 9.04085 6.78909 8.89719C6.55061 8.75284 6.27857 8.67327 5.9999 8.66634ZM12.1109 11.5556C12.2775 11.7619 12.3554 12.0258 12.3274 12.2894C12.2994 12.5531 12.1679 12.7948 11.9618 12.9615C11.1209 13.6336 10.0765 13.9998 9 13.9998C7.92354 13.9998 6.87908 13.6336 6.03823 12.9615C5.83388 12.7942 5.70399 12.5529 5.67692 12.2902C5.64984 12.0275 5.72778 11.7647 5.89372 11.5593C6.05966 11.3539 6.30013 11.2224 6.56265 11.1936C6.82517 11.1648 7.08842 11.241 7.29494 11.4056C7.77997 11.7904 8.38088 11.9998 9 11.9998C9.61912 11.9998 10.22 11.7904 10.7051 11.4056C10.9114 11.2391 11.1754 11.1614 11.4391 11.1896C11.7027 11.2177 11.9444 11.3494 12.1109 11.5556Z" fill="#F28406"/>
</svg>
