<svg width="24" height="20" viewBox="0 0 24 20" fill="none" xmlns="http://www.w3.org/2000/svg">
<path d="M4.125 7.1875C4.125 7.1875 1.23206 8.3125 0.75 12.25M19.875 7.1875C19.875 7.1875 22.7679 8.3125 23.25 12.25M8.625 7.1875C8.625 7.1875 11.325 7.84394 12 11.125C12.675 7.84394 15.375 7.1875 15.375 7.1875M9.75 15.625C9.75 15.625 7.3875 16.0469 6.375 19M14.25 15.625C14.25 15.625 16.6125 16.0469 17.625 19" stroke="#0645BE" stroke-width="1.5" stroke-linecap="round"/>
<path d="M12 16.75C13.5533 16.75 14.8125 15.4908 14.8125 13.9375C14.8125 12.3842 13.5533 11.125 12 11.125C10.4467 11.125 9.1875 12.3842 9.1875 13.9375C9.1875 15.4908 10.4467 16.75 12 16.75Z" stroke="#0645BE" stroke-width="1.5" stroke-linecap="round" stroke-linejoin="round"/>
<path d="M17.625 7.75C19.489 7.75 21 6.23896 21 4.375C21 2.51104 19.489 1 17.625 1C15.761 1 14.25 2.51104 14.25 4.375C14.25 6.23896 15.761 7.75 17.625 7.75Z" stroke="#0645BE" stroke-width="1.5" stroke-linecap="round" stroke-linejoin="round"/>
<path d="M6.375 7.75C8.23896 7.75 9.75 6.23896 9.75 4.375C9.75 2.51104 8.23896 1 6.375 1C4.51104 1 3 2.51104 3 4.375C3 6.23896 4.51104 7.75 6.375 7.75Z" stroke="#0645BE" stroke-width="1.5" stroke-linecap="round" stroke-linejoin="round"/>
</svg>
