<?xml version="1.0" encoding="utf-8"?>
<!-- Generator: Adobe Illustrator 23.0.0, SVG Export Plug-In . SVG Version: 6.00 Build 0)  -->
<svg version="1.1" id="Calque_1" xmlns="http://www.w3.org/2000/svg" xmlns:xlink="http://www.w3.org/1999/xlink" x="0px" y="0px"
	 viewBox="0 0 425.2 425.2" style="enable-background:new 0 0 425.2 425.2;" xml:space="preserve">
<style type="text/css">
	.st0{fill:#FE8801;}
	.st1{fill:#1E1E1C;}
	.st2{fill:#FE8802;}
	.st3{fill:#FE8904;}
	.st4{fill:#222220;}
	.st5{fill:#FE8A05;}
	.st6{fill:#1F1F1D;}
	.st7{fill:#FE8902;}
	.st8{fill:#FE8903;}
</style>
<g>
	<path class="st0" d="M341.2,297.6c-6.1-0.6-12.2-1.3-18.3-1.8c-7.8-0.7-15.5-1.5-23.3-2.1c-9.9-0.8-19.8-1.5-29.8-2.1
		c-7.9-0.5-15.8-0.9-23.7-1.1c-10.1-0.3-20.2-0.6-30.3-0.7c-9.5-0.1-19-0.1-28.5,0.2c-13.7,0.3-27.5,1.1-41.1,2.6
		c-13.4,1.5-26.8,3.5-39.8,7.4c-7.5,2.2-14.8,5.1-21.4,9.6c-2.5-3.5-4.9-7-7.4-10.7c2-1.1,3.8-2.3,5.8-3.2c8-3.6,16.1-7.2,24.9-8.8
		c3.6-0.7,7.2-0.8,10.8-1.4c12.7-1.9,25.5-2.9,38.3-3.1c10.9-0.2,21.8-0.4,32.6,0c15.2,0.5,30.5,1.4,45.7,2.5
		c11.6,0.8,23.3,1.9,34.8,3.2c13.5,1.5,26.9,3.2,40.3,5c9.9,1.3,19.8,2.9,29.8,4.3c0.2,0,0.4,0.1,0.5,0.1
		C341.2,297.4,341.2,297.5,341.2,297.6z"/>
	<path class="st0" d="M293.3,209.7c3.3,0,6.5,0,9.8,0c0,6.4,0,12.7,0,19c2.1-0.6,4.1-1.4,6.1-1.7c11.2-1.9,20.8,5.2,22.4,16.4
		c0.8,5.9,0.3,11.6-2.8,16.8c-4.6,7.7-12,10.7-20.6,9.6c-4.4-0.5-8.3-2.2-11.3-5.7c-2.7-3-3.6-6.7-3.6-10.7c0-14.4,0-28.9,0-43.3
		C293.3,210.1,293.3,210,293.3,209.7z M303.2,246.8c0,2.2,0,4.4,0,6.6c0,2.3,0.6,4.4,2.7,5.7c4.2,2.7,10,1.7,13.1-2.2
		c2.7-3.4,3.4-7.4,3-11.6c-0.4-4.1-2.2-7.3-6.3-8.7c-4.4-1.5-8.4-0.4-12.1,2.3c-0.3,0.2-0.5,0.8-0.5,1.2
		C303.1,242.3,303.2,244.6,303.2,246.8z"/>
	<path class="st1" d="M103.9,215.9c3.8,0,7.5,0,11.4,0c3.9,11.8,7.9,23.7,11.8,35.7c0.1,0,0.2,0,0.3,0c3.5-11.9,6.9-23.8,10.4-35.7
		c3.9,0,7.7,0,11.6,0c-0.8,2.4-1.7,4.9-2.5,7.4c-4.5,13.1-9,26.2-13.4,39.4c-0.7,2.2-1,4.5-1.5,6.8c-3.2,0-6.6,0-10,0
		c-0.6-4.5-2.2-8.7-3.7-12.8c-4.6-13.4-9.4-26.7-14.1-40C104,216.4,104,216.2,103.9,215.9z"/>
	<path class="st1" d="M204,239.9c-3.6-4.3-8.4-5.1-13.4-4.9c-1.2,0.1-2.4,0.4-3.6,0.8c-1.5,0.6-2.2,1.8-2.2,3.4c0,1.5,1,2.3,2.2,2.6
		c3.1,0.9,6.2,1.6,9.4,2.3c2.7,0.6,5.3,1.3,7.6,3c5.8,4.2,6.3,13.5,1,18.3c-2.9,2.7-6.5,3.9-10.3,4.3c-5.7,0.5-11.4,0.3-16.9-1.8
		c-4.1-1.5-4.1-1.6-3.6-5.9c0.2-1.9,0.4-3.8,0.7-5.7c0-0.1,0.1-0.2,0.1-0.3c5.4,4.5,11.7,5.8,18.5,5.4c1.2-0.1,2.4-0.6,3.5-1.1
		c1.4-0.7,1.7-2.1,1.6-3.6c-0.1-1.3-1.1-2-2.2-2.2c-2.9-0.7-5.8-1.3-8.6-1.9c-3.4-0.7-6.7-1.7-9.4-4.1c-5.7-5-4.7-14.7,1.9-18.9
		c3.3-2.1,7-2.8,10.8-3c5.4-0.2,10.4,0.8,14.9,3.9c0.8,0.5,1,1,0.7,1.9C205.7,235,204.9,237.4,204,239.9z"/>
	<path class="st1" d="M235.1,227.4c2,0,3.9,0,6,0c0-3.8,0-7.6,0-11.3c3.3,0,6.6,0,9.9,0c0,3.8,0,7.5,0,11.3c3.7,0,7.3,0,11,0
		c0,3.1,0,6.2,0,9.3c-3.6,0-7.2,0-10.8,0c0,0.3-0.1,0.6-0.1,0.9c0,5.3,0,10.6,0,16c0,0.8,0.1,1.7,0.2,2.5c0.6,3.1,2.1,4.4,5.2,4.5
		c2.9,0.1,5.7-0.3,7.9-2.9c0,1,0.1,1.8,0.1,2.5c0,2,0,3.9,0.1,5.9c0.1,1.1-0.3,1.8-1.3,2.1c-2,0.6-4,1.4-6.1,1.6
		c-2.2,0.2-4.6,0.3-6.8-0.2c-5.2-1-8.3-4.6-9-10.1c-0.2-1.7-0.4-3.3-0.4-5c0-5.4,0-10.8,0-16.2c0-0.4,0-0.9,0-1.4c-2,0-4,0-6,0
		C235.1,233.6,235.1,230.6,235.1,227.4z"/>
	<path class="st2" d="M349.9,227.5c0,0.5,0,0.9,0,1.3c0,12,0,24.1,0,36.1c0,3.9-0.5,7.8-2,11.5c-2,4.9-5.6,7.5-10.8,8.2
		c-1.3,0.2-2.8,0.6-3.7,0.1c-0.9-0.5-1.1-2.1-1.6-3.2c-0.8-2.1-1.7-4.1-2.5-6.2c-0.1-0.3-0.2-0.7-0.4-1.2c1.9,1.1,3.8,1.7,5.8,1.5
		c2.1-0.2,3.7-1.2,4.3-3.1c0.6-1.8,1-3.7,1-5.6c0.1-12.6,0-25.3,0-37.9c0-0.4,0-0.9,0-1.4C343.4,227.5,346.5,227.5,349.9,227.5z"/>
	<path class="st3" d="M96.7,287.6c-0.9-2.2-1.5-4.1-2.3-6c-1.8-4.3-1.7-8.8-1.7-13.3c0-8.4,0.1-16.7,0.1-25.1c0-4.5,0.3-9-0.1-13.4
		c-0.9-10.2-3-20.3-6.2-30.1c-0.8-2.6-2.4-4.6-4.6-6.1c-1.5-1-2.9-2.1-4.5-3c-5-3-6.2-7.5-5.2-12.9c1.1-6.5,4.1-11.8,9.6-15.6
		c2.3-1.6,4.6-3.2,7-4.7c2.5-1.5,5.3-1.6,8.1-2c2.6-0.4,5.2-0.7,7.8-1.2c2.4-0.4,4-1.9,4.7-4.1c0.8-2.5,1.4-5.1,1.9-7.7
		c0.7-3,2.1-5.5,4.8-7.1c0.1-0.1,0.3-0.2,0.4-0.2c0.1,0,0.1,0,0.2,0c0.1,0.1,0.2,0.2,0.4,0.3c-0.3,0.1-0.6,0.1-0.8,0.3
		c-2.2,1.7-3.4,4-3.8,6.8c-0.3,2.5-0.7,5-1.2,7.4c-0.7,3.5-2.9,5.8-6.4,6.6c-3.7,0.8-7.4,1.4-11,2.2c-1.5,0.3-3,1-4.2,1.8
		c-3.6,2.3-7.1,4.7-9.7,8.1c-3.2,4.1-4.4,8.9-3.7,14.1c0.1,1,0.8,2,1.5,2.7c1.2,1.2,2.7,2.1,4.1,3.1c0.7,0.5,1.4,0.9,2.1,1.4
		c3.3,2.1,5.5,4.9,6.6,8.6c3.4,11.2,5.8,22.6,5.9,34.3c0.1,6.6-0.6,13.2-0.9,19.9c-0.4,7-0.7,14-1.1,20.9c-0.2,4.1,1.1,7.8,2.1,11.6
		c0.1,0.4,0.2,0.8,0.3,1.3C96.8,286.9,96.7,287.1,96.7,287.6z"/>
	<path class="st4" d="M155.5,227.5c3.3,0,6.6,0,10,0c0,14,0,27.9,0,41.9c-3.3,0-6.6,0-10,0C155.5,255.4,155.5,241.5,155.5,227.5z"/>
	<path class="st4" d="M217.1,269.3c0-14,0-27.9,0-41.8c3.3,0,6.6,0,10,0c0,14,0,27.9,0,41.8C223.9,269.3,220.6,269.3,217.1,269.3z"
		/>
	<path class="st5" d="M117.6,134.6c-0.2-0.3-0.4-0.7-0.8-0.9c-2.3-1.7-4.5-3.4-6.3-5.8c13.2,9,27.5,15.3,42.6,18.5
		c-4.8,0.7-9.9-0.9-14.9-2.2c-0.1,0.1-0.2,0.1-0.3,0.2c0.4,1.2,0.7,2.4,1.3,3.5c2.3,4.5,4.8,9,7,13.5c1.7,3.5,3.2,7.1,4.7,10.7
		c1.2,2.9,1.3,5.8,0.7,8.8c-1.2,5.3-2.9,10.4-5.5,15.1c-0.7,1.3-1.8,2.4-2.8,3.3c-2,1.7-4.1,3.2-6.3,4.9c0.3-0.5,0.4-1,0.7-1.4
		c0.8-1.1,1.5-2.2,2.5-3.1c2.6-2.3,4-5.3,4.8-8.6c1-4.2,2.1-8.3,2.9-12.5c0.3-1.4,0-3.1-0.5-4.4c-2.1-5.9-4.4-11.6-6.6-17.5
		c-1.2-3.2-2.1-6.4-3.1-9.7c-0.2-0.6-0.3-1.2-0.1-1.8c0.4-1.3-0.3-1.6-1.3-1.9c-6.1-2.1-11.9-4.8-17.3-8.3
		C118.5,134.8,118,134.7,117.6,134.6L117.6,134.6z"/>
	<path class="st6" d="M154.8,215.5c2.3-3,4.5-5.9,6.7-8.9c3,2.4,5.9,4.6,8.8,6.9c-2.1,2.9-4.2,5.7-6.3,8.6
		C160.9,219.9,157.9,217.8,154.8,215.5z"/>
	<path class="st6" d="M231.9,213.4c-2.1,2.9-4.2,5.7-6.3,8.6c-3-2.2-6-4.3-9.2-6.6c2.3-3,4.5-5.9,6.7-8.9
		C226.2,209,229.1,211.2,231.9,213.4z"/>
	<path class="st7" d="M282.8,258.8c0,3.5,0,7,0,10.5c-3.8,0-7.6,0-11.5,0c0-3.5,0-7,0-10.5C275.2,258.8,279,258.8,282.8,258.8z"/>
	<path class="st8" d="M352.2,214c-1.9,2.6-3.6,5-5.4,7.4c0,0.1-0.1,0.1-0.3,0.2c-2.6-1.9-5.3-3.8-8.1-5.8c2-2.7,4-5.3,6-7.9
		C347.1,209.9,349.7,211.9,352.2,214z"/>
	<path class="st5" d="M117.6,134.5c-0.2,0.1-0.3,0.2-0.5,0.2c0,0,0,0,0,0C117.3,134.7,117.5,134.6,117.6,134.5
		C117.6,134.6,117.6,134.5,117.6,134.5z"/>
	<path class="st5" d="M110.5,127.4C110.5,127.5,110.6,127.5,110.5,127.4c0.1,0.1,0,0.1,0,0.2C110.5,127.6,110.4,127.5,110.5,127.4
		C110.4,127.5,110.5,127.5,110.5,127.4z"/>
	<path class="st3" d="M117.1,134.8c0,0.1-0.1,0.1-0.1,0.2c0,0-0.1,0-0.1-0.1C117,134.9,117.1,134.9,117.1,134.8
		C117.1,134.8,117.1,134.8,117.1,134.8z"/>
</g>
</svg>
