<svg width="13" height="15" viewBox="0 0 13 15" fill="none" xmlns="http://www.w3.org/2000/svg">
<path d="M5.59815 1.14919C5.84594 0.926563 6.16729 0.803406 6.5004 0.803406C6.83351 0.803406 7.15486 0.926563 7.40265 1.14919L12.3527 5.59699C12.4934 5.72356 12.6059 5.8783 12.683 6.05118C12.7601 6.22406 12.7999 6.41121 12.8 6.60049V12.95C12.8 13.308 12.6577 13.6514 12.4045 13.9046C12.1514 14.1578 11.808 14.3 11.45 14.3H9.19995C8.84191 14.3 8.49853 14.1578 8.24536 13.9046C7.99218 13.6514 7.84995 13.308 7.84995 12.95V9.79999C7.84995 9.68064 7.80254 9.56618 7.71815 9.48179C7.63376 9.3974 7.5193 9.34999 7.39995 9.34999H5.59995C5.4806 9.34999 5.36614 9.3974 5.28175 9.48179C5.19736 9.56618 5.14995 9.68064 5.14995 9.79999V12.95C5.14995 13.308 5.00772 13.6514 4.75455 13.9046C4.50137 14.1578 4.15799 14.3 3.79995 14.3H1.54995C1.19191 14.3 0.848531 14.1578 0.595357 13.9046C0.342183 13.6514 0.199951 13.308 0.199951 12.95V6.60049C0.199951 6.21799 0.361951 5.85349 0.648151 5.59699L5.59815 1.14919ZM6.80055 1.81879C6.71797 1.74467 6.61092 1.70366 6.49995 1.70366C6.38898 1.70366 6.28193 1.74467 6.19935 1.81879L1.24935 6.26659C1.20246 6.30869 1.16493 6.36016 1.13919 6.41768C1.11346 6.4752 1.10009 6.53748 1.09995 6.60049V12.95C1.09995 13.0693 1.14736 13.1838 1.23175 13.2682C1.31614 13.3526 1.4306 13.4 1.54995 13.4H3.79995C3.9193 13.4 4.03376 13.3526 4.11815 13.2682C4.20254 13.1838 4.24995 13.0693 4.24995 12.95V9.79999C4.24995 9.44195 4.39218 9.09857 4.64536 8.8454C4.89853 8.59222 5.24191 8.44999 5.59995 8.44999H7.39995C7.75799 8.44999 8.10137 8.59222 8.35455 8.8454C8.60772 9.09857 8.74995 9.44195 8.74995 9.79999V12.95C8.74995 13.0693 8.79736 13.1838 8.88175 13.2682C8.96614 13.3526 9.0806 13.4 9.19995 13.4H11.45C11.5693 13.4 11.6838 13.3526 11.7681 13.2682C11.8525 13.1838 11.9 13.0693 11.9 12.95V6.60049C11.8998 6.53748 11.8864 6.4752 11.8607 6.41768C11.835 6.36016 11.7974 6.30869 11.7506 6.26659L6.80055 1.81879Z" fill="#000000"/>
</svg>
