<svg width="16" height="15" viewBox="0 0 16 15" fill="none" xmlns="http://www.w3.org/2000/svg">
<path d="M8.5623 8.18745V12.125C8.5623 12.2741 8.50304 12.4172 8.39755 12.5227C8.29206 12.6282 8.14899 12.6875 7.9998 12.6875C7.85062 12.6875 7.70754 12.6282 7.60205 12.5227C7.49656 12.4172 7.4373 12.2741 7.4373 12.125V8.18745C7.4373 8.03827 7.49656 7.89519 7.60205 7.7897C7.70754 7.68422 7.85062 7.62495 7.9998 7.62495C8.14899 7.62495 8.29206 7.68422 8.39755 7.7897C8.50304 7.89519 8.5623 8.03827 8.5623 8.18745ZM15.865 6.64831L14.8904 13.9615C14.8543 14.2318 14.7212 14.4797 14.516 14.6593C14.3107 14.8388 14.0472 14.9376 13.7746 14.9375H2.22504C1.95235 14.9376 1.68888 14.8388 1.48363 14.6593C1.27837 14.4797 1.14531 14.2318 1.10918 13.9615L0.133943 6.64901C0.112691 6.49004 0.125679 6.32835 0.172035 6.1748C0.218392 6.02126 0.297046 5.8794 0.402722 5.75874C0.508398 5.63808 0.638652 5.54141 0.78475 5.47522C0.930847 5.40903 1.08941 5.37484 1.2498 5.37495H3.80707L7.57793 1.06691C7.63071 1.00705 7.69563 0.959116 7.76837 0.926281C7.84111 0.893446 7.92 0.876465 7.9998 0.876465C8.07961 0.876465 8.1585 0.893446 8.23124 0.926281C8.30397 0.959116 8.36889 1.00705 8.42168 1.06691L12.1925 5.37495H14.7498C14.91 5.37506 15.0683 5.40937 15.2142 5.47561C15.3601 5.54185 15.4901 5.63848 15.5956 5.75904C15.7012 5.87959 15.7797 6.02129 15.826 6.17465C15.8723 6.32802 15.8861 6.4895 15.865 6.64831ZM5.30191 5.37495H10.6977L7.9998 2.29175L5.30191 5.37495ZM14.7498 6.49995H1.2498L2.22504 13.8125H13.7746L14.7498 6.49995ZM11.1526 8.1312L10.7589 12.0687C10.7511 12.1424 10.758 12.217 10.7791 12.288C10.8002 12.3591 10.8352 12.4252 10.8819 12.4827C10.9287 12.5402 10.9864 12.5879 11.0517 12.6231C11.117 12.6582 11.1885 12.6801 11.2623 12.6875C11.2813 12.6885 11.3003 12.6885 11.3193 12.6875C11.4586 12.6873 11.5929 12.6354 11.6962 12.5419C11.7994 12.4484 11.8643 12.3198 11.8782 12.1812L12.272 8.2437C12.2869 8.09526 12.2422 7.94698 12.1478 7.83147C12.0534 7.71596 11.917 7.64268 11.7686 7.62776C11.6201 7.61285 11.4718 7.65751 11.3563 7.75192C11.2408 7.84633 11.1675 7.98276 11.1526 8.1312ZM4.84699 8.1312C4.83207 7.98276 4.7588 7.84633 4.64329 7.75192C4.52778 7.65751 4.37949 7.61285 4.23105 7.62776C4.08261 7.64268 3.94618 7.71596 3.85177 7.83147C3.75736 7.94698 3.7127 8.09526 3.72761 8.2437L4.12136 12.1812C4.13536 12.3204 4.20074 12.4495 4.30475 12.5431C4.40876 12.6367 4.54393 12.6882 4.68386 12.6875C4.70283 12.6885 4.72185 12.6885 4.74082 12.6875C4.81432 12.6801 4.88564 12.6583 4.95072 12.6233C5.0158 12.5884 5.07335 12.5409 5.1201 12.4838C5.16685 12.4266 5.20188 12.3607 5.22318 12.29C5.24448 12.2192 5.25164 12.145 5.24425 12.0715L4.84699 8.1312Z" fill="#8C8B92"/>
</svg>
