<svg width="20" height="17" viewBox="0 0 20 17" fill="none" xmlns="http://www.w3.org/2000/svg">
<path d="M17.1011 9.90319L11.4441 15.5612C11.0691 15.9361 10.5604 16.1468 10.0301 16.1468C9.49978 16.1468 8.99117 15.9361 8.61611 15.5612L2.95911 9.90419C2.49148 9.44064 2.12001 8.88929 1.86604 8.28179C1.61206 7.67429 1.48058 7.02261 1.47914 6.36416C1.4777 5.70571 1.60632 5.05346 1.85764 4.44485C2.10895 3.83625 2.478 3.28327 2.94359 2.81768C3.40919 2.35208 3.96216 1.98303 4.57077 1.73172C5.17937 1.48041 5.83162 1.35178 6.49007 1.35322C7.14852 1.35466 7.80021 1.48615 8.40771 1.74012C9.01521 1.9941 9.56656 2.36556 10.0301 2.83319C10.9717 1.91507 12.2371 1.40486 13.5521 1.4131C14.8672 1.42134 16.1261 1.94736 17.0561 2.87722C17.9861 3.80707 18.5123 5.06589 18.5207 6.38097C18.5291 7.69605 18.0191 8.9615 17.1011 9.90319Z" stroke="black" stroke-linecap="round" stroke-linejoin="round"/>
</svg>
