<svg width="16" height="16" viewBox="0 0 16 16" fill="none" xmlns="http://www.w3.org/2000/svg">
<path d="M4.79 11.092L6.11075 10.711L14.063 2.66351C14.1257 2.59923 14.1606 2.51286 14.1602 2.42305C14.1598 2.33324 14.1241 2.24719 14.0607 2.18351L13.5845 1.70201C13.5537 1.67038 13.517 1.64521 13.4763 1.62795C13.4357 1.61069 13.3921 1.60169 13.348 1.60148C13.3038 1.60128 13.2601 1.60986 13.2193 1.62673C13.1786 1.6436 13.1416 1.66843 13.1105 1.69976L5.17925 9.72626L4.78925 11.0913L4.79 11.092ZM14.5272 0.748007L15.0035 1.23026C15.6605 1.89551 15.6665 2.96876 15.0155 3.62726L6.821 11.9208L3.998 12.7338C3.82565 12.782 3.6412 12.7599 3.48512 12.6723C3.32905 12.5847 3.2141 12.4388 3.1655 12.2665C3.12934 12.1427 3.12882 12.0111 3.164 11.887L3.98525 9.00701L12.158 0.735257C12.3134 0.578775 12.4984 0.454803 12.7022 0.370571C12.9061 0.286339 13.1246 0.243533 13.3451 0.24465C13.5657 0.245767 13.7838 0.290785 13.9867 0.377077C14.1897 0.463369 14.3734 0.589959 14.5272 0.748007ZM5.888 1.61276C6.26 1.61276 6.5615 1.91801 6.5615 2.29451C6.56209 2.38351 6.54514 2.47175 6.5116 2.5542C6.47807 2.63664 6.42861 2.71166 6.36606 2.77498C6.30351 2.8383 6.22909 2.88866 6.14706 2.9232C6.06503 2.95774 5.977 2.97577 5.888 2.97626H3.194C2.45 2.97626 1.847 3.58676 1.847 4.33901V12.5185C1.847 13.2715 2.45 13.882 3.194 13.882H11.276C12.02 13.882 12.6238 13.2715 12.6238 12.5185V9.79226C12.6238 9.41576 12.9253 9.11051 13.2972 9.11051C13.6692 9.11051 13.9708 9.41576 13.9708 9.79301V12.5185C13.9708 14.0245 12.764 15.2455 11.276 15.2455H3.194C1.706 15.2455 0.5 14.0245 0.5 12.5185V4.33901C0.5 2.83376 1.706 1.61276 3.194 1.61276H5.888Z" fill="#8C8B92"/>
</svg>
