<svg width="16" height="15" viewBox="0 0 16 15" fill="none" xmlns="http://www.w3.org/2000/svg">
<path d="M14.75 14.5L11.4928 11.2428M11.4928 11.2428C12.0499 10.6856 12.4919 10.0241 12.7935 9.29616C13.095 8.56819 13.2502 7.78795 13.2502 7C13.2502 6.21205 13.095 5.43181 12.7935 4.70384C12.4919 3.97587 12.0499 3.31442 11.4928 2.75725C10.9356 2.20009 10.2742 1.75812 9.54619 1.45658C8.81822 1.15505 8.03798 0.999847 7.25003 0.999847C6.46208 0.999847 5.68184 1.15505 4.95387 1.45658C4.2259 1.75812 3.56445 2.20009 3.00728 2.75725C1.88204 3.8825 1.24988 5.40866 1.24988 7C1.24988 8.59134 1.88204 10.1175 3.00728 11.2428C4.13253 12.368 5.65869 13.0002 7.25003 13.0002C8.84137 13.0002 10.3675 12.368 11.4928 11.2428Z" stroke="black" stroke-width="0.75" stroke-linecap="round" stroke-linejoin="round"/>
</svg>
