<svg width="140" height="91" viewBox="0 0 140 91" fill="none" xmlns="http://www.w3.org/2000/svg">
<g clip-path="url(#clip0_382_6424)">
<path d="M23.3135 3.56628C22.4406 3.96834 21.6671 4.55681 21.0477 5.28999C20.7534 5.6501 20.5124 6.05043 20.3322 6.47876C20.1701 6.91859 20.0698 7.37864 20.0341 7.84584C19.8552 8.79685 19.7956 9.74787 19.6167 10.7583C19.4803 11.8088 19.0459 12.7986 18.3646 13.6114C17.9708 14.0243 17.4785 14.3311 16.9336 14.5029C16.4448 14.6691 15.9472 14.808 15.4429 14.919C14.4293 15.1567 13.4753 15.2756 12.5213 15.4539C11.5933 15.5826 10.6764 15.7813 9.77853 16.0483C9.59489 16.1164 9.41567 16.1958 9.24191 16.2861C9.18228 16.3455 9.06303 16.405 9.00341 16.4644L8.70528 16.6427C8.2879 16.9399 7.93015 17.1776 7.51278 17.4748C6.71795 18.0175 5.96096 18.6132 5.24702 19.258C4.53725 19.8363 3.89699 20.4945 3.33901 21.2195C3.09547 21.5494 2.8951 21.9089 2.74276 22.2893C2.56388 22.7648 2.44463 23.1809 2.26576 23.6564C1.97884 24.5026 1.79858 25.3811 1.72913 26.2717C1.72063 26.7084 1.74055 27.1452 1.78876 27.5793C1.79945 27.8016 1.83955 28.0214 1.90801 28.2332C1.92567 28.3863 1.98785 28.5309 2.08688 28.6492C2.60399 29.3044 3.22902 29.8671 3.93526 30.3135C4.71039 30.8485 5.60477 31.3834 6.43952 31.9778C6.89349 32.2901 7.29582 32.6712 7.63203 33.1071C8.00485 33.5652 8.32486 34.0637 8.58603 34.5931C9.00341 35.6035 9.30153 36.5545 9.59966 37.5055C9.89407 38.4417 10.133 39.3944 10.3152 40.3586C10.7325 42.2606 11.1499 44.2221 11.448 46.1835C11.7676 48.1509 11.9667 50.1358 12.0443 52.1274C12.0846 53.1183 12.0647 54.1107 11.9847 55.0993L11.8058 58.0117L11.2095 69.6616C11.1499 70.6127 11.0903 71.6231 11.0307 72.5741C11.0307 73.0496 10.971 73.5251 10.971 74.0006V74.7139C11.0307 74.9517 11.0307 75.1894 11.0903 75.4272C11.2692 76.3782 11.5673 77.3292 11.8058 78.2208C12.0443 79.1123 12.3424 80.1228 12.6405 81.0144C11.8654 79.2312 11.1499 77.3886 10.5537 75.546L10.3748 74.8328C10.3253 74.5783 10.3053 74.3191 10.3152 74.0601C10.2655 73.5664 10.2456 73.0702 10.2555 72.5741C10.1959 71.6231 10.1959 70.6127 10.1959 69.6616C10.1959 65.7387 10.1959 61.8158 10.2555 57.9523L10.3152 55.0398C10.3152 54.0888 10.3748 53.0784 10.3152 52.1868C10.1943 50.2719 9.95535 48.3663 9.59966 46.4807C9.24191 44.5787 8.88416 42.6767 8.46678 40.8341C8.22828 39.8831 7.98978 38.9915 7.75128 38.0405C7.51278 37.0895 7.15503 36.1979 6.8569 35.4252C6.32027 33.9987 4.59114 33.0477 2.98126 31.9183C2.56388 31.6212 2.14651 31.324 1.72913 30.9673C1.27263 30.5888 0.871267 30.1487 0.536626 29.6597C0.356455 29.3689 0.234934 29.0459 0.178875 28.7087C0.110005 28.4362 0.0700357 28.1573 0.0596243 27.8765C0.00999427 27.3431 -0.00991139 26.8073 -9.27364e-07 26.2717C0.0825866 25.2116 0.323755 24.1699 0.715502 23.1809L1.25213 21.7544C1.48155 21.2333 1.76111 20.7357 2.08688 20.2684C3.39864 18.5447 5.06814 17.4154 6.73765 16.2861C7.1414 16.0072 7.55933 15.7493 7.98978 15.5134L8.2879 15.3351C8.41173 15.2629 8.53119 15.1835 8.64566 15.0973C8.91384 14.9721 9.19334 14.8726 9.48041 14.8001C10.459 14.546 11.4556 14.3671 12.4617 14.2652C13.4157 14.1463 14.4293 14.0869 15.3237 13.9085C15.7877 13.8442 16.2461 13.7448 16.6951 13.6114C17.0898 13.5191 17.4574 13.3359 17.7683 13.0764C18.3735 12.4055 18.7856 11.5841 18.9608 10.6989C19.1993 9.8073 19.3782 8.79685 19.6167 7.84584C19.7215 7.35401 19.8815 6.87549 20.0937 6.41932C20.3013 5.96037 20.5833 5.53865 20.9284 5.17112C21.5206 4.38485 22.3605 3.81967 23.3135 3.56628Z" fill="white"/>
<path d="M32.8535 7.96472C32.942 8.31594 33.0018 8.67375 33.0324 9.03461V9.27236L33.092 9.51012C33.1614 9.66478 33.2212 9.82358 33.2709 9.98562C33.569 10.58 33.9267 11.2338 34.2249 11.8282C34.8807 13.0764 35.5962 14.3246 36.1925 15.5728C36.7887 16.821 37.4446 18.1287 38.0409 19.4363C38.6591 20.7701 39.1967 22.1397 39.6508 23.5375L39.7104 23.8347L39.8296 24.1319C39.8765 24.3466 39.8965 24.5662 39.8893 24.7858C39.8893 25.2018 39.8296 25.6179 39.8296 25.9745C39.7104 26.7472 39.5315 27.4605 39.3526 28.1737C38.9746 29.5732 38.4964 30.9438 37.9216 32.275L37.0272 34.2364C36.8516 34.5991 36.6312 34.9385 36.3714 35.2469C36.1038 35.5376 35.8037 35.7969 35.477 36.0196C34.8807 36.4357 34.3441 36.8517 33.7479 37.2678C33.4773 37.4709 33.2185 37.6892 32.9727 37.9216C32.7196 38.1653 32.4807 38.4233 32.2572 38.6943C32.4813 37.9985 32.8698 37.3665 33.3901 36.8517L34.8211 35.2469C35.0402 35.0268 35.2397 34.7882 35.4174 34.5336C35.5582 34.266 35.6778 33.9877 35.7751 33.7015C36.0136 33.0477 36.2521 32.3939 36.431 31.74C36.7887 30.3729 37.2061 29.0653 37.5043 27.6982C37.6235 27.0444 37.8024 26.3311 37.862 25.7368C37.9096 25.4421 37.9296 25.1436 37.9216 24.8452C37.9267 24.7041 37.9065 24.5632 37.862 24.4291L37.8024 24.2508L37.7428 24.0131C37.385 22.7649 36.8484 21.4572 36.3714 20.1496C35.8944 18.8419 35.2981 17.5343 34.8211 16.2266C34.3441 14.919 33.8075 13.5519 33.3305 12.2443C33.092 11.531 32.9131 10.8772 32.7342 10.1639C32.6746 9.98562 32.6746 9.80731 32.615 9.62899V9.3318C32.615 9.21293 32.615 9.15349 32.6746 9.09405C32.7587 8.72187 32.8185 8.34463 32.8535 7.96472Z" fill="white"/>
<path d="M9.12266 82.7374C10.551 82.0269 12.025 81.4115 13.5349 80.8951C15.0571 80.3815 16.6105 79.9647 18.1857 79.6472C19.7598 79.3485 21.3544 79.1697 22.9557 79.1123C24.5497 79.0417 26.1468 79.1213 27.7257 79.35C26.1158 79.5283 24.5656 79.6472 23.0153 79.8849C21.4651 80.1226 19.9148 80.3603 18.3646 80.6574C16.8143 80.9546 15.3237 81.3111 13.7734 81.6677C12.2232 82.0242 10.6729 82.4402 9.12266 82.7374Z" fill="white"/>
<path d="M18.9012 0C20.4288 1.34159 22.1099 2.49873 23.9097 3.44742C25.6985 4.39843 27.5468 5.29001 29.3952 6.0627C31.2436 6.8354 33.1516 7.6081 35.0596 8.26192C36.0136 8.55911 36.9676 8.8563 37.9813 9.09406C38.472 9.22162 38.9697 9.32085 39.4719 9.39125C39.9821 9.49201 40.5025 9.53191 41.0221 9.51012L40.247 9.629C40.0085 9.68844 39.7104 9.629 39.4719 9.68844C38.9533 9.67839 38.4357 9.6387 37.9216 9.56956C37.385 9.51012 36.908 9.39125 36.3714 9.33181C35.8347 9.27237 35.3577 9.09406 34.8807 8.97518C32.8917 8.42669 30.9399 7.75167 29.0375 6.95428C27.1306 6.13791 25.2956 5.16368 23.552 4.0418C21.7398 3.02708 20.1567 1.65124 18.9012 0Z" fill="white"/>
<path d="M2.74276 85.7694C5.32237 84.1229 8.10919 82.8237 11.0307 81.9059C12.402 81.4304 13.833 81.0738 15.2641 80.6577L17.3509 80.1822L18.4242 79.9445L19.4974 79.7662C25.0747 78.7451 30.7102 78.0702 36.3714 77.7453C47.5552 77.1903 58.7608 77.23 69.9404 77.8641C81.0903 78.4585 92.1806 79.469 103.271 80.7172C114.361 81.9654 125.332 83.5108 136.363 85.2345C125.332 84.0457 114.242 83.0353 103.152 82.322C92.0613 81.6088 80.971 81.1332 69.8808 81.0738C58.8323 80.9518 47.7854 81.428 36.7888 82.5003C31.3721 83.0585 25.9954 83.9518 20.6899 85.175L19.7359 85.4128L18.7819 85.71L16.8739 86.2449C15.6218 86.661 14.3697 87.0176 13.1175 87.5526C10.7603 88.387 8.53239 89.5475 6.49915 91L2.74276 85.7694Z" fill="white"/>
<path d="M29.9915 71.0882C29.2975 71.0296 28.6008 71.0098 27.9046 71.0287H25.6985C25.3792 71.0149 25.0595 71.0348 24.7445 71.0882V71.0287C24.7927 70.9375 24.8134 70.8343 24.8041 70.7315C24.8135 70.6096 24.793 70.4872 24.7445 70.3749C24.7152 70.1306 24.6551 69.8909 24.5656 69.6616C24.4463 69.305 24.3271 68.8295 24.1482 68.1757L23.3135 65.501L15.8603 44.3409C16.6951 44.4004 17.7683 44.4004 19.0204 44.4004C19.8396 44.4397 20.6604 44.3799 21.4651 44.2221L27.4872 62.3507L32.7939 44.2815C33.569 44.3409 34.5826 44.3409 35.7751 44.3409C36.7131 44.4 37.6547 44.3401 38.5775 44.1626L31.2436 65.2038L30.5281 67.5219C30.2507 68.3739 30.0511 69.2493 29.9319 70.1371C29.907 70.3962 29.9272 70.6576 29.9915 70.9098V71.0882Z" fill="#1A1817"/>
<path d="M41.3799 44.1627C42.3715 42.6087 43.4882 41.1377 44.7189 39.7642L49.0119 43.1522C48.4157 43.8655 47.879 44.5787 47.402 45.2325L45.8518 47.4318L41.3799 44.1627ZM46.6269 68.7701C46.604 69.5235 46.6239 70.2776 46.6865 71.0287H41.6184V50.1659H46.6269V68.7701Z" fill="#1A1817"/>
<path d="M59.3271 71.2665C55.5707 71.2665 52.7087 70.5532 50.8007 69.1862C50.8159 68.7287 50.8557 68.2723 50.9199 67.8191L51.0988 66.3926C51.2181 65.4415 51.2777 64.8472 51.2777 64.6094C51.2721 64.4877 51.2924 64.3661 51.3373 64.2528C51.4562 64.3303 51.5577 64.4315 51.6354 64.55C51.9598 64.8929 52.3436 65.1748 52.7683 65.3821C53.3777 65.7721 54.0405 66.0724 54.736 66.2737C56.3288 66.819 58.0007 67.1002 59.6848 67.1058C62.0102 67.1058 63.1431 66.3331 63.1431 64.7877C63.1447 64.5662 63.0841 64.3486 62.9682 64.1596C62.8523 63.9705 62.6857 63.8175 62.4872 63.7178C61.3956 63.2215 60.2251 62.9197 59.029 62.8263C57.745 62.6832 56.4835 62.3838 55.2726 61.9347C54.4084 61.5849 53.6038 61.1037 52.8876 60.5082C52.3192 59.977 51.871 59.3312 51.5728 58.6137C51.2747 57.8963 51.1334 57.1237 51.1584 56.3475C51.1176 55.4014 51.3143 54.4601 51.7308 53.609C52.1473 52.7578 52.7703 52.0238 53.5435 51.4735C55.1335 50.2848 57.3396 49.6904 60.1618 49.6904C62.7366 49.6084 65.255 50.4523 67.2573 52.0679C67.138 52.4246 67.0784 52.7218 66.9591 53.0784C66.661 53.97 66.4225 54.5643 66.3032 54.9804L65.8262 56.1692C65.8292 56.2339 65.808 56.2975 65.7666 56.3475C65.6525 56.2199 65.5526 56.0804 65.4685 55.9314C64.418 54.8612 63.0267 54.1888 61.5332 54.0294C60.9846 53.9114 60.425 53.8516 59.8637 53.8511C57.4191 53.8511 56.2266 54.5643 56.2266 56.0503C56.215 56.297 56.2844 56.5407 56.4243 56.7445C56.5642 56.9483 56.7669 57.101 57.0017 57.1796C58.2169 57.7804 59.5289 58.1627 60.8774 58.3089C62.1701 58.437 63.4363 58.7576 64.6337 59.26C65.4161 59.6214 66.1239 60.1253 66.7206 60.7459C67.7181 61.8969 68.2308 63.3876 68.1516 64.9066C68.1667 65.7942 67.969 66.6725 67.5749 67.4686C67.1808 68.2646 66.6018 68.9554 65.8859 69.4833C64.3356 70.6721 62.1891 71.2665 59.3271 71.2665Z" fill="#1A1817"/>
<path d="M72.2061 44.1627C73.1977 42.6087 74.3144 41.1377 75.5451 39.7642L79.8382 43.1522C79.2419 43.8655 78.7053 44.5787 78.2283 45.2325L76.678 47.4318L72.2061 44.1627ZM77.4531 68.7701C77.4302 69.5235 77.4501 70.2776 77.5128 71.0288H72.4446V50.1659H77.4531V68.7701Z" fill="#1A1817"/>
<path d="M92.4191 66.6303C94.1482 66.6303 95.3407 66.1548 95.937 65.2632H96.1159L96.1755 69.8994C95.5196 70.5532 94.3271 70.9693 92.5383 71.207C91.9452 71.2845 91.3478 71.3242 90.7496 71.3259C89.9562 71.3223 89.1694 71.1815 88.4242 70.9099C87.6084 70.6638 86.8694 70.2137 86.2777 69.6022C85.0852 68.354 84.4293 66.452 84.4293 63.7773V54.6832H81.3884V50.047H84.4293V44.3409H89.3186V50.047H94.8041V54.6238H89.3186V62.7668C89.3186 64.8471 89.9148 66.0359 91.0477 66.3331C91.4709 66.5501 91.9438 66.6526 92.4191 66.6303Z" fill="#1A1817"/>
<path d="M99.5145 70.9682C99.6238 70.2601 99.6836 69.5453 99.6933 68.8289V67.5215C99.7031 67.2823 99.6831 67.0427 99.6337 66.8084C99.5741 66.5707 99.6337 66.3924 99.5741 66.1547L99.5145 65.6793H105.298C105.252 66.0937 105.233 66.5104 105.238 66.9272L105.179 67.7592V69.1855C105.181 69.7816 105.22 70.3771 105.298 70.9682H99.5145Z" fill="white"/>
<path d="M115.494 50.8792C116.91 50.1371 118.486 49.7495 120.085 49.7498C121.471 49.718 122.849 49.9605 124.14 50.4631C125.269 50.9394 126.285 51.6483 127.121 52.5434C129 54.6271 130.003 57.351 129.923 60.1515C129.923 63.5395 128.91 66.2142 126.882 68.2946C125.952 69.2605 124.83 70.0233 123.588 70.5349C122.346 71.0464 121.011 71.2955 119.668 71.2665C117.104 71.2665 115.017 70.6127 113.407 69.305C111.559 67.8191 110.664 65.7387 110.664 63.1234V41.2502H115.554V50.8792H115.494ZM115.494 63.064C115.494 65.3821 116.985 66.5709 119.906 66.5709C120.612 66.5655 121.307 66.3897 121.93 66.0584C122.553 65.7272 123.086 65.2504 123.484 64.6688C124.514 63.3014 125.04 61.6224 124.974 59.9138C124.974 58.0117 124.438 56.5258 123.424 55.5748C122.393 54.6647 121.043 54.1951 119.668 54.2671C118.55 54.3104 117.462 54.6378 116.508 55.2181C116.148 55.401 115.809 55.6201 115.494 55.872V63.064Z" fill="white"/>
<path d="M130.997 74.1195C132.964 74.1195 133.978 72.6336 133.978 69.7211V50.1659H138.867V68.2946C138.867 73.8818 137.257 77.2103 134.097 78.2208C132.959 78.5736 131.77 78.7343 130.579 78.6963L128.492 73.4657L128.552 73.3468C129.264 73.8571 130.12 74.1278 130.997 74.1195ZM133.203 44.341C134.09 42.9565 135.087 41.6447 136.184 40.418L140 43.4494C139.344 44.2815 138.867 44.8759 138.629 45.2325L137.913 46.1835C137.675 46.4807 137.436 46.8374 137.198 47.194L133.203 44.341Z" fill="white"/>
</g>
<defs>
<clipPath id="clip0_382_6424">
<rect width="140" height="91" fill="white"/>
</clipPath>
</defs>
</svg>
