<svg width="15" height="17" viewBox="0 0 15 17" fill="none" xmlns="http://www.w3.org/2000/svg">
<path fill-rule="evenodd" clip-rule="evenodd" d="M7.32344 0.475834C6.24021 0.474392 5.19295 0.86447 4.37462 1.5742C3.55628 2.28393 3.02201 3.26549 2.87023 4.33804C2.71845 5.41058 2.9594 6.50185 3.54868 7.41077C4.13796 8.31969 5.03587 8.98503 6.07696 9.2842C4.59754 9.46386 3.32876 9.98674 2.37222 10.9297C1.15548 12.1278 0.539673 13.9133 0.539673 16.2427C0.539673 16.3988 0.60168 16.5485 0.712054 16.6588C0.822428 16.7692 0.972127 16.8312 1.12822 16.8312C1.28431 16.8312 1.43401 16.7692 1.54438 16.6588C1.65476 16.5485 1.71676 16.3988 1.71676 16.2427C1.71676 14.1115 2.27805 12.6742 3.19866 11.7672C4.12051 10.859 5.49833 10.3882 7.32344 10.3882C9.14855 10.3882 10.5264 10.859 11.4495 11.7672C12.3688 12.6755 12.9301 14.1115 12.9301 16.2427C12.9301 16.3988 12.9921 16.5485 13.1025 16.6588C13.2129 16.7692 13.3626 16.8312 13.5187 16.8312C13.6748 16.8312 13.8245 16.7692 13.9348 16.6588C14.0452 16.5485 14.1072 16.3988 14.1072 16.2427C14.1072 13.9133 13.4914 12.129 12.2734 10.9297C11.3194 9.98798 10.0493 9.46386 8.56992 9.2842C9.60754 8.98167 10.5014 8.31531 11.0876 7.40726C11.6738 6.49922 11.9131 5.41032 11.7617 4.34016C11.6102 3.26999 11.0782 2.29025 10.263 1.58052C9.44789 0.870777 8.40426 0.478589 7.32344 0.475834ZM4.009 4.96737C4.009 4.08833 4.3582 3.24528 4.97978 2.6237C5.60135 2.00213 6.4444 1.65293 7.32344 1.65293C8.20249 1.65293 9.04553 2.00213 9.66711 2.6237C10.2887 3.24528 10.6379 4.08833 10.6379 4.96737C10.6379 5.84642 10.2887 6.68946 9.66711 7.31104C9.04553 7.93262 8.20249 8.28182 7.32344 8.28182C6.4444 8.28182 5.60135 7.93262 4.97978 7.31104C4.3582 6.68946 4.009 5.84642 4.009 4.96737Z" fill="#FF8800"/>
</svg>
