<svg width="49" height="48" viewBox="0 0 49 48" fill="none" xmlns="http://www.w3.org/2000/svg">
<path d="M22.7927 35.3134H26.2072M2.30579 45.5569L14.2565 38.7279M2.30579 28.4844L15.9638 31.8989M26.139 8.09992L44.5431 2.94403C44.8144 2.85856 45.1037 2.84835 45.3804 2.9145C45.657 2.98065 45.9105 3.12067 46.1137 3.31962C46.3283 3.50787 46.4911 3.74787 46.5868 4.01682C46.6824 4.28576 46.7076 4.5747 46.6601 4.85615L42.9041 24.0115C42.6992 23.4993 42.4944 22.953 42.3237 22.4066C41.236 18.4408 38.9306 14.9166 35.7326 12.3313C32.5347 9.74599 28.6057 8.23008 24.5 7.99748C20.3943 8.23008 16.4653 9.74599 13.2674 12.3313C10.0694 14.9166 7.76397 18.4408 6.67634 22.4066C6.50561 22.9871 6.30074 23.4993 6.09587 24.0456L2.33993 4.85615C2.29236 4.5747 2.31759 4.28576 2.41322 4.01682C2.50884 3.74787 2.67168 3.50787 2.88625 3.31962C3.08951 3.12067 3.34299 2.98065 3.61961 2.9145C3.89624 2.84835 4.18564 2.85856 4.45692 2.94403L22.861 8.09992M29.6217 44.9764C26.2511 45.7507 22.7489 45.7507 19.3783 44.9764M46.6942 45.5569L34.7435 38.7279M46.6942 28.4844L33.0362 31.8989" stroke="#B06005" stroke-width="4.06531" stroke-linecap="round" stroke-linejoin="round"/>
</svg>
